<svg width="100%" height="100%" viewBox="0 0 239 281" version="1.1" xmlns="http://www.w3.org/2000/svg" xmlns:xlink="http://www.w3.org/1999/xlink" xml:space="preserve" xmlns:serif="http://www.serif.com/" style="fill-rule:evenodd;clip-rule:evenodd;stroke-linejoin:round;stroke-miterlimit:2;">
  <g transform="matrix(1,0,0,1,-705.87,-547.987)">
    <g transform="matrix(1,0,0,1,832.611,729.984)">
      <path d="M0,-60.789C3.158,-58.238 6.907,-57.563 10.867,-57.555C7.346,-58.954 4.057,-61.088 0,-60.789M30.326,-56.549C32.827,-56.203 35.127,-57.142 37.503,-55.945C38.521,-55.433 39.487,-55.842 39.994,-56.807C40.261,-57.315 40.377,-58.172 40.124,-58.628C39.571,-59.624 38.48,-59.634 37.522,-59.291C35.106,-58.425 32.723,-57.469 30.326,-56.549M67.058,-66.485C66.865,-66.895 66.743,-67.793 66.284,-68.026C63.302,-69.536 61.171,-66.687 58.502,-66.309C56.793,-66.066 57.078,-64.298 57.314,-63.006C57.418,-62.443 57.843,-61.741 58.325,-61.482C59.627,-60.785 66.901,-64.852 67.058,-66.485M6.943,-42.19C4.057,-43.488 2.686,-45.436 0.169,-44.227C-2.801,-42.802 -5.853,-41.547 -8.854,-40.189C-9.719,-39.798 -10.919,-39.466 -10.402,-38.154C-9.952,-37.013 -8.869,-37.423 -7.879,-37.354C-2.682,-36.994 1.343,-39.893 6.943,-42.19M-71.798,-18.351C-66.43,-18.01 -49.009,-22.925 -44.456,-26.064C-50.818,-27.081 -69.348,-21.852 -71.798,-18.351M60.849,-26.874C64.482,-26.704 68.176,-32.305 66.496,-35.053C65.699,-36.356 64.312,-38.752 62.665,-35.767C61.81,-34.213 61.097,-34.954 59.965,-35.03C57.063,-35.226 55.606,-32.527 54.971,-30.643C54.251,-28.509 56.89,-27.624 58.812,-27.088C59.59,-26.872 60.439,-26.913 60.849,-26.874M-92.28,-78.846C-94.887,-77.956 -97.47,-77.098 -99.188,-80.356C-100.503,-82.848 -99.41,-84.933 -97.931,-86.765C-96.767,-88.205 -94.841,-88.628 -93.503,-87.277C-91.917,-85.677 -93.952,-85.211 -94.919,-84.598C-95.943,-83.949 -96.333,-83.175 -95.595,-82.154C-94.937,-81.243 -93.85,-80.804 -93.001,-81.604C-89.757,-84.664 -87.364,-82.269 -84.677,-80.619C-77.667,-76.313 -69.808,-75.269 -61.774,-74.645C-50.287,-73.754 -38.853,-73.175 -27.568,-76.213C-24.839,-76.947 -22.094,-77.662 -19.7,-79.29C-19.018,-79.754 -17.747,-80.551 -17.562,-80.369C-14.105,-76.961 -9.66,-78.61 -5.726,-77.782C-4.75,-77.576 -3.179,-76.315 -4.575,-74.269C-9.974,-66.363 -13.676,-57.594 -16.972,-48.656C-17.599,-46.955 -17.908,-45.101 -18.11,-43.289C-18.367,-40.973 -17.41,-39.523 -14.916,-40.631C-6.146,-44.527 2.568,-48.549 11.38,-53.135C7.347,-53.771 3.579,-55.66 -0.187,-55.943C-3.079,-56.161 -5.064,-57.725 -7.567,-58.297C-8.858,-58.593 -9.569,-59.551 -9.089,-60.928C-8.706,-62.025 -7.691,-62.305 -6.646,-62.225C-5.003,-62.098 -2.118,-59.544 -3.28,-64.356C-3.583,-65.612 -1.393,-65.28 -0.426,-65.016C2.447,-64.228 5.27,-63.245 8.087,-62.268C10.445,-61.449 12.761,-60.499 15.309,-60.44C16.718,-60.408 18.614,-61.252 19.14,-59.238C19.542,-57.693 18.245,-56.972 16.79,-56.616C16.208,-56.474 15.495,-55.943 15.965,-55.139C16.462,-54.287 17.261,-54.271 18.103,-54.716C25.627,-58.687 33.722,-61.171 41.738,-63.877C42.862,-64.257 44.393,-64.948 43.873,-66.728C43.311,-68.659 42.036,-67.23 41.044,-67.246C38.966,-67.278 38.859,-69.052 38.569,-70.431C37.635,-74.871 37.759,-79.402 38.111,-83.867C38.385,-87.326 41.428,-86.838 43.861,-86.999C46.299,-87.16 47.813,-86.375 47.316,-83.643C46.463,-78.941 48.295,-74.055 46.172,-69.416C45.275,-67.458 46.794,-66.531 48.426,-66.518C51.043,-66.496 53.653,-67.155 53.79,-70.397C53.908,-73.202 53.765,-76.094 53.199,-78.836C51.567,-86.746 55.076,-92.973 59.364,-98.995C59.933,-99.793 61.051,-100.525 60.284,-101.496C59.137,-102.945 58.254,-101.512 57.457,-100.822C54.967,-98.669 52.804,-96.097 48.843,-96.833C47.428,-97.097 46.094,-96.182 47.662,-94.394C50.371,-91.308 47.715,-90.266 45.538,-89.647C42.354,-88.743 39.046,-88.083 35.75,-87.822C32.934,-87.598 32.308,-86.6 33.094,-84.034C34.883,-78.196 34.354,-72.16 34.342,-66.183C34.34,-65.071 35.093,-63.107 32.906,-63.191C31.125,-63.259 31.238,-64.976 31.169,-66.279C30.902,-71.269 30.471,-76.263 30.492,-81.252C30.513,-85.84 28.713,-87.77 24.119,-86.81C23.307,-86.641 22.473,-86.57 21.646,-86.483C20.346,-86.346 18.704,-85.889 18.532,-87.832C18.387,-89.478 19.793,-90.097 21.214,-90.148C23.037,-90.213 24.868,-90.07 26.695,-90.007C29.129,-89.923 31.521,-90.037 33.693,-91.911C27.86,-91.911 22.027,-91.859 16.195,-91.924C9.43,-91.999 2.467,-90.975 -3.617,-95.209C-4.559,-95.864 -5.593,-96.396 -6.483,-97.11C-7.842,-98.198 -8.152,-99.887 -7.217,-101.1C-5.91,-102.794 -4.945,-100.927 -4.104,-100.168C0.024,-96.446 5.23,-96.041 10.321,-95.584C20.775,-94.646 31.241,-94.146 41.1,-98.881C42.585,-99.594 44.026,-100.461 45.347,-101.446C50.987,-105.656 50.984,-106.324 45.181,-110.132C43.903,-110.97 42.914,-112.04 43.555,-113.341C44.327,-114.907 46.016,-114.313 47.016,-113.507C51.985,-109.496 57.985,-107.319 63.405,-104.118C65.578,-102.834 65.586,-101.435 64.19,-99.658C62.353,-97.318 61.461,-94.241 58.821,-92.539C57.432,-91.643 57.543,-90.31 57.472,-89.009C57.209,-84.189 57.001,-79.366 56.738,-74.546C56.536,-70.821 56.967,-68.939 61.627,-70.966C70.298,-74.738 79.291,-77.765 88.115,-81.191C89.518,-81.735 90.775,-82.718 92.315,-81.848C93.134,-81.386 93.318,-80.608 92.918,-79.708C92.189,-78.071 91.186,-76.904 89.162,-77.042C86.738,-77.208 84.724,-75.69 82.445,-75.281C79.323,-74.721 77.49,-73.189 78.367,-69.842C79.489,-65.556 75.122,-65.012 73.492,-62.655C71.896,-60.347 69.98,-57.207 65.855,-60.239C63.762,-61.777 57.745,-56.616 57.731,-53.775C57.724,-52.194 58.478,-51.624 59.902,-51.929C62.487,-52.482 64.34,-51.118 66.288,-49.773C69.019,-47.89 69.64,-45.766 67.288,-43.209C65.559,-41.329 65.304,-39.867 67.985,-38.621C70.629,-37.393 70.568,-35.179 70.077,-32.66C69.535,-29.884 67.043,-27.393 69.032,-24.145C69.655,-23.128 68.278,-22.111 67.125,-21.65C64.941,-20.778 62.105,-19.442 60.599,-21.418C58.32,-24.407 53.714,-24.383 52.45,-28.41C52.137,-29.409 51.174,-29.469 49.988,-28.935C41.018,-24.895 31.524,-23.07 21.734,-23.074C18.489,-23.075 17.738,-21.893 18,-18.954C19.744,0.669 20.915,20.321 20.721,40.035C20.695,42.634 21.204,44.742 24.527,44.521C26.096,44.416 28.521,43.586 28.519,45.955C28.517,48.031 28.036,50.62 25.535,51.805C20.65,54.118 13.812,51.782 11.816,46.905C10.923,44.721 12.754,45.073 14.063,44.981C15.291,44.893 17.349,45.394 17.263,43.611C17.168,41.639 15.318,41.648 13.785,42.365C11.999,43.201 10.569,42.354 9.078,41.601C7.468,40.787 5.129,39.865 6.001,37.898C6.775,36.151 8.97,37.429 10.487,37.968C13.843,39.159 15.476,38.352 15.448,34.46C15.373,23.801 15.357,13.137 15.634,2.482C15.752,-2.049 13.052,-2.036 10.66,-0.569C6.23,2.149 3.017,6.195 1.271,11.243C0.737,12.787 1.694,13.877 2.464,14.857C4.608,17.59 6.926,20.189 9.194,22.824C10.14,23.922 10.856,25.068 9.445,26.243C8.217,27.267 7.319,26.451 6.542,25.452C4.005,22.19 0.805,19.245 -0.927,15.601C-3.539,10.101 0.455,5.653 3.383,1.607C5.176,-0.869 6.613,-4.644 11.174,-4.048C12.949,-3.815 12.604,-5.827 12.662,-7.133C13.024,-15.233 12.109,-23.366 13.236,-31.441C13.52,-33.467 12.856,-33.728 11.092,-33.207C9.183,-32.643 9.069,-34.472 8.457,-35.522C7.86,-36.546 8.182,-37.872 9.113,-38.086C11.876,-38.723 13.972,-41.607 17.53,-40.606C14.146,-36.21 17.161,-31.966 17.386,-27.712C17.478,-25.969 19.063,-25.843 20.463,-26.099C27.646,-27.411 35.053,-26.885 42.162,-28.957C45.717,-29.993 49.214,-31.045 52.01,-33.508C52.947,-34.333 55.063,-35.242 53.703,-37.038C52.519,-38.6 50.796,-37.437 49.611,-36.786C47.627,-35.695 45.764,-34.309 44.055,-32.812C42.253,-31.236 41.779,-32.097 40.878,-33.774C38.883,-37.489 39.849,-41.569 39.819,-45.303C39.805,-47.231 43.818,-49.039 45.109,-51.795C45.393,-52.397 47.08,-52.08 47.379,-50.811C48.006,-48.153 50.473,-46.274 50.059,-43.073C49.626,-39.738 52.896,-40.592 54.359,-40.681C56.909,-40.837 54.802,-42.448 54.763,-43.512C54.558,-49.155 54.555,-54.805 54.367,-60.449C54.322,-61.799 55.213,-63.81 53.201,-64.293C51.442,-64.715 50.744,-63.279 50.277,-61.634C49.604,-59.261 47.643,-57.61 45.611,-56.662C43.419,-55.639 41.461,-54.818 40.795,-52.251C40.568,-51.378 39.736,-51.103 38.854,-50.952C22.687,-48.177 8.541,-40.49 -5.48,-32.555C-6.733,-31.846 -7.441,-30.883 -8.75,-32.366C-10.105,-33.902 -11.447,-32.98 -12.643,-31.969C-14.067,-30.763 -13.892,-29.394 -12.98,-27.964C-11.553,-25.726 -10.116,-23.493 -8.736,-21.226C-8.24,-20.409 -7.418,-19.43 -8.383,-18.549C-9.474,-17.554 -10.158,-18.726 -10.789,-19.391C-11.933,-20.6 -13.543,-21.721 -13.991,-23.176C-16.158,-30.215 -20.681,-29.607 -26.348,-27.907C-41.62,-23.325 -56.771,-18.305 -72.342,-14.728C-74.843,-14.154 -78.527,-13.538 -78.982,-10.417C-79.602,-6.177 -78.359,-1.69 -74.482,0.57C-62.571,7.517 -50.253,12.661 -35.765,9.554C-25.053,7.257 -17.151,2.311 -13.599,-8.469C-13.1,-9.982 -12.113,-12.152 -10.247,-11.392C-8.422,-10.646 -9.993,-8.758 -10.349,-7.441C-12.172,-0.69 -16.313,4.293 -22.189,7.975C-24.629,9.503 -27.475,10.448 -28.381,13.926C-28.796,15.514 -31.173,16.252 -32.064,13.902C-32.83,11.883 -33.933,11.234 -35.118,12.794C-36.041,14.008 -37.426,16.726 -35.433,17.587C-28.27,20.68 -32.336,26.115 -33.016,30.133C-33.786,34.687 -33.214,38.664 -31.787,42.759C-31.239,44.328 -29.755,44.274 -28.412,44.199C-27.251,44.134 -26.03,43.658 -24.951,43.893C-22.827,44.354 -20.484,45.59 -20.532,47.785C-20.607,51.33 -24.617,51.149 -26.777,52.715C-28.262,53.79 -28.838,51.287 -29.764,50.725C-32.995,48.761 -33.823,43.759 -39.077,44.113C-41.521,44.278 -40.839,40.89 -39.804,39.805C-37.244,37.12 -37.988,34.401 -38.782,31.511C-39.365,29.39 -39.942,27.332 -37.928,25.507C-37.329,24.965 -36.28,23.73 -37.635,23.082C-41.439,21.265 -40.619,18.519 -39.645,15.479C-39.107,13.802 -40.162,12.845 -41.832,13.21C-44.289,13.748 -46.7,14.223 -49.235,13.782C-50.3,13.598 -51.314,14.069 -51.508,15.223C-51.711,16.435 -50.731,16.88 -49.748,17.267C-48.45,17.777 -46.166,17.877 -46.939,19.905C-47.813,22.197 -49.796,20.55 -51.215,20.171C-53.473,19.569 -55.624,18.867 -55.7,15.731C-55.761,13.27 -57.751,12.228 -59.896,11.346C-64.339,9.52 -68.631,7.323 -73.085,5.53C-80.135,2.692 -82.447,-2.981 -82.604,-9.93C-82.672,-12.942 -83.285,-14.753 -86.821,-15.411C-90.517,-16.099 -93.078,-19.5 -96.766,-20.792C-98.674,-21.461 -97.419,-23.547 -96.266,-24.408C-95.327,-25.109 -93.88,-25.131 -92.698,-25.443C-92.706,-26.951 -94.002,-27.002 -94.669,-27.662C-95.306,-28.29 -95.755,-28.983 -95.161,-29.834C-94.738,-30.44 -94.114,-30.397 -93.396,-30.259C-91.439,-29.883 -89.451,-29.67 -87.487,-29.329C-84.188,-28.758 -84.147,-28.705 -86.079,-26.07C-87.18,-24.569 -85.704,-23.859 -85.072,-23.344C-83.818,-22.322 -83.499,-19.557 -80.92,-20.72C-79.588,-21.32 -80.187,-22.579 -79.942,-23.611C-78.972,-27.707 -76.4,-31.328 -76.397,-35.785C-76.397,-36.75 -75.078,-36.47 -74.321,-36.15C-73.036,-35.606 -72.859,-34.63 -73.067,-33.289C-74.09,-26.691 -73.938,-26.398 -66.894,-27.416C-51.886,-29.585 -37.456,-34.229 -22.838,-38.061C-21.338,-38.454 -20.46,-39.202 -20.699,-40.849C-22.034,-50.061 -16.921,-57.438 -13.717,-65.355C-13.18,-66.683 -11.542,-67.982 -12.755,-69.393C-13.943,-70.775 -15.554,-69.403 -16.901,-69.071C-34.95,-64.63 -53.196,-65.344 -71.461,-67.009C-73.729,-67.216 -75.899,-68.364 -78.147,-68.951C-79.905,-69.41 -81.726,-68.96 -80.305,-66.859C-76.338,-60.995 -76.773,-54.193 -75.598,-47.727C-75.183,-45.439 -74.866,-43.096 -73.418,-41.164C-72.746,-40.267 -72.295,-39.26 -73.311,-38.583C-74.303,-37.922 -75.506,-38.898 -75.809,-39.587C-76.798,-41.836 -78.498,-43.833 -78.632,-46.41C-79.068,-54.838 -81.853,-62.567 -85.291,-70.172C-86.149,-72.071 -87.728,-72.302 -89.077,-73.035C-91.508,-74.355 -93.026,-75.962 -92.281,-78.892C-88.984,-76.297 -85.416,-74.297 -81.482,-72.807C-67.331,-67.445 -52.599,-69.406 -38.041,-69.178C-37.345,-69.167 -36.39,-69.51 -36.765,-70.986C-42.838,-70.986 -48.997,-70.711 -55.122,-71.048C-65.574,-71.622 -76.203,-71.961 -85.504,-77.588C-87.853,-79.008 -89.815,-79.511 -92.28,-78.846" style="fill:rgb(227,175,104);fill-rule:nonzero;"/>
    </g>
    <g transform="matrix(1,0,0,1,792.212,740.324)">
      <path d="M0,84.081C-4.455,81.199 -8.597,81.751 -11.916,79.952C-8.543,81.598 -5.711,84.788 0,84.081M-51.829,61.072C-41.434,66.552 -29.958,69.203 -19.663,74.81C-29.346,67.671 -40.145,63.223 -51.829,61.072M113.219,33.988C131.344,29.16 142.778,23.351 144.537,18.171C133.763,23.299 122.839,27.402 113.219,33.988M78.69,49.423C73.66,49.095 45.94,64.53 41.478,69.906C54.594,64.357 66.241,56.171 78.69,49.423M145.611,7.381C146.749,9.032 148.067,8.406 149.135,8.676C152.373,9.492 152.886,10.893 151.369,14.056C147.217,22.718 140.393,26.909 131.387,30.204C109.426,38.239 87.757,47.113 67.968,60.061C59.833,65.384 51.186,70.045 42.024,73.797C32.86,77.551 23.981,81.904 14.605,85.312C3.133,89.483 -7.161,88.921 -16.755,81.543C-30.144,71.248 -46.692,68.391 -61.721,61.976C-66.619,59.885 -70.588,57.47 -71.099,51.606C-71.299,49.302 -70.385,47.173 -68.314,46.938C-59.903,45.987 -54.815,39.635 -48.549,35.244C-46.484,33.796 -44.887,32.732 -42.007,32.742C-37.789,32.757 -34.002,30.09 -30.117,28.365C-28.866,27.81 -27.485,26.913 -26.706,28.395C-26.081,29.587 -27.383,30.392 -28.534,30.881C-29.135,31.136 -29.621,31.741 -30.23,31.885C-41.339,34.502 -49.634,42.501 -59.643,47.206C-63.077,48.821 -63.141,50.899 -60.656,53.361C-58.098,55.894 -55.021,57.938 -51.394,57.523C-47.82,57.113 -44.979,58.182 -41.919,59.66C-38.229,61.444 -34.162,62.423 -30.31,63.707C-25.983,65.15 -21.717,67.701 -17.518,69.946C-13.658,72.01 -9.734,73.729 -5.209,73.318C-4.879,73.288 -4.446,73.17 -4.227,73.325C4.146,79.262 11.535,74.033 18.803,70.922C46.559,59.042 73.894,46.222 100.964,32.861C111.229,27.794 121.245,22.187 131.144,16.427C135.021,14.17 138.628,11.415 140.39,6.59C141.23,4.287 140.795,3.981 139.226,3.037C136.824,1.591 133.943,0.86 132.138,-1.503C131.551,-2.271 130.712,-3.072 131.498,-4.134C132.144,-5.007 133.166,-5.402 134.158,-5.003C136.289,-4.147 138.536,-3.621 140.318,-1.88C141.962,-0.275 144.01,0.926 145.922,2.244C147.133,3.079 149.587,2.269 149.435,4.891C149.297,7.25 146.79,6.179 145.611,7.381" style="fill:rgb(227,175,104);fill-rule:nonzero;"/>
    </g>
    <g transform="matrix(1,0,0,1,814.291,576.336)">
      <path d="M0,48.17C-3.35,52.663 -6.073,56.108 -8.54,59.728C-9.544,61.2 -8.494,61.624 -6.975,61.66C0.212,61.828 6.146,65.881 12.635,68.208C14.178,68.761 15.706,70.561 14.687,72.195C13.359,74.321 12.114,71.846 11.115,71.253C7.031,68.834 2.602,67.445 -2.002,66.85C-3.54,66.651 -5.999,65.879 -6.99,67.911C-8.034,70.053 -4.212,69.543 -4.665,72.095C-9.39,73.459 -14.389,75.114 -19.497,76.29C-22.099,76.888 -27.903,68.298 -27.024,65.224C-26.488,63.349 -24.774,60.394 -26.881,60.034C-30.338,59.443 -33.554,55.347 -37.517,58.686C-39.418,60.288 -41.464,61.716 -43.41,63.267C-45.302,64.774 -46.991,65.954 -48.334,62.606C-49.011,60.919 -50.487,61.564 -51.764,62.059C-56.712,63.979 -61.724,65.753 -66.587,67.869C-67.954,68.463 -69.063,69.231 -69.908,67.692C-70.912,65.865 -69.045,65.298 -67.986,64.93C-59.25,61.894 -50.946,57.572 -41.525,56.528C-39.001,56.249 -36.892,55.242 -37.852,50.932C-38.789,46.726 -39.959,43.111 -42.597,39.817C-43.028,39.279 -43.019,37.56 -42.892,37.524C-38.309,36.229 -39.106,31.399 -36.897,28.666C-35.295,26.684 -32.545,27.487 -30.297,28.076C-27.514,28.806 -28.026,31.277 -28.419,33.043C-29.233,36.695 -28.288,37.826 -24.575,36.912C-22.169,36.319 -19.643,36.167 -17.158,35.954C-15.664,35.826 -13.406,34.639 -13.096,37.139C-12.866,38.989 -14.846,39.904 -16.543,40.128C-21.312,40.758 -26.097,41.307 -30.892,41.682C-32.338,41.795 -34.137,40.887 -33.979,43.411C-33.845,45.53 -32.159,45.456 -30.616,45.348C-28.624,45.209 -26.636,45.019 -24.646,44.856C-19.459,44.429 -18.579,45.636 -20.63,50.357C-22.993,55.795 -20.201,65.371 -15.284,68.433C-14.117,69.159 -12.491,70.836 -11.449,69.097C-10.301,67.179 -12.554,66.941 -13.829,66.281C-15.169,65.589 -16.636,64.694 -14.902,62.909C-10.926,58.814 -8.373,53.529 -4.437,49.524C0.146,44.863 -0.056,39.536 -0.346,33.906C-0.823,24.65 0.064,15.419 -1.918,6.101C-2.942,1.283 -0.604,-4.306 0.461,-9.495C1.268,-13.429 1.876,-17.366 1.986,-21.371C2.029,-22.913 2.243,-24.299 3.243,-25.566C4.236,-26.826 4.667,-28.718 6.907,-28.286C8.864,-27.908 9.536,-26.549 9.876,-24.761C11.331,-17.104 11.143,-9.259 9,-2.02C6.128,7.682 6.218,17.295 6.779,27.091C6.815,27.718 7.001,28.85 7.223,28.877C13.734,29.67 9.084,32.369 8.119,34.295C7.489,35.552 7.29,36.82 7.36,38.157C7.69,44.467 7.495,50.803 8.613,57.08C8.891,58.634 10.023,61.841 7.945,61.745C5.611,61.636 1.548,62.281 0.923,58.102C0.492,55.229 0.371,52.31 0,48.17" style="fill:rgb(227,175,104);fill-rule:nonzero;"/>
    </g>
    <g transform="matrix(1,0,0,1,802.712,745.029)">
      <path d="M0,44.719C8.61,46.848 19.815,40.761 19.347,34.187C13.683,39.49 7.181,42.721 0,44.719M-22.025,43.433C-25.328,42.388 -26.2,40.313 -27.548,38.635C-29.027,36.794 -31.869,36.404 -33.478,34.376C-34.075,33.624 -35.153,33.089 -36.066,33.977C-36.453,34.352 -36.671,35.175 -36.578,35.73C-35.576,41.737 -30.322,44.899 -22.025,43.433M-20.481,40.819C-18.931,43.458 -17.099,44.254 -15.063,43.947C-6.712,42.685 1.722,41.83 9.464,37.896C13.033,36.081 13.875,32.637 15.072,29.58C16.134,26.869 13.413,25.74 11.388,24.493C10.038,23.663 6.97,25.235 7.37,22.183C7.678,19.841 10.413,21.994 11.616,20.615C11.62,18.771 9.211,18.604 8.898,16.781C8.594,15.01 7.597,13.964 5.941,15.95C5.187,16.856 4.242,17.084 3.52,15.938C3.052,15.196 3.045,13.94 3.76,13.673C8.934,11.744 6.651,7.371 7.04,3.927C7.263,1.953 7.048,-0.066 7.135,-2.06C7.195,-3.424 7.992,-4.186 9.409,-4.116C10.625,-4.056 11.062,-3.285 11.218,-2.159C11.398,-0.853 11.601,0.471 11.999,1.722C14.088,8.272 14.075,8.184 20.591,5.309C22.517,4.459 25.446,1.66 26.468,3.907C27.603,6.405 23.54,6.635 21.662,7.63C19.324,8.868 16.771,9.696 14.324,10.734C13.339,11.152 12.634,11.866 12.859,13.027C13.062,14.061 13.983,14.078 14.813,14.154C19.466,14.577 17.371,17.488 16.587,19.53C15.639,21.997 17.761,29.074 20.304,29.452C22.335,29.754 22.222,30.826 22.492,32.047C23.787,37.887 20.568,43.551 14.377,45.766C9.5,47.51 4.345,48.905 -0.784,47.83C-9.89,45.922 -19.02,48.139 -28.116,47.07C-32.484,46.556 -36.12,44.703 -39.345,42.122C-42.31,39.75 -41.476,35.51 -39.992,33.535C-38.409,31.429 -37.293,27.178 -31.748,28.943C-28.277,30.047 -23.417,26.824 -19.204,25.472C-18.963,25.395 -18.762,24.641 -18.841,24.264C-18.935,23.816 -19.684,23.293 -19.579,23.045C-17.781,18.79 -19.047,14.318 -18.555,9.983C-18.438,8.954 -17.956,8.027 -16.661,8.131C-15.457,8.228 -15.134,9.163 -14.796,10.147C-12.832,15.867 -13.799,21.583 -14.808,27.29C-15.102,28.951 -16.254,29.231 -17.809,29.002C-21.319,28.486 -24.239,30.366 -27.267,31.644C-29.67,32.656 -29.431,34.174 -27.186,34.95C-23.764,36.132 -20.54,38.002 -16.75,38.07C-15.286,38.096 -12.806,37.431 -13.062,39.957C-13.267,41.994 -15.414,41.074 -16.811,41.03C-17.789,40.997 -18.766,40.919 -20.481,40.819" style="fill:rgb(227,175,104);fill-rule:nonzero;"/>
    </g>
    <g transform="matrix(1,0,0,1,891.53,744.555)">
      <path d="M0,-5.853C-3.096,-4.71 -5.168,-4.489 -6.776,-6.809C-7.691,-8.129 -9.077,-7.37 -10.322,-6.641C-12.843,-5.166 -14.633,-2.968 -16.247,-0.68C-17.908,1.676 -18.092,3.941 -14.729,5.253C-13.398,5.773 -11.401,6.376 -11.913,8.176C-12.548,10.411 -14.907,10.514 -16.892,10.701C-19.032,10.902 -18.583,9.198 -19.229,7.921C-22.41,1.647 -19.468,-2.858 -15.614,-7.296C-13.082,-10.212 -10.257,-11.47 -6.342,-9.867C-4.687,-9.19 -2.34,-8.243 -1.058,-10.737C0.005,-12.804 -1.61,-14.053 -2.781,-15.474C-4.844,-17.978 -7.213,-19.935 -10.471,-20.583C-11.477,-20.784 -12.507,-20.939 -12.645,-22.2C-12.785,-23.488 -11.443,-23.492 -10.91,-24.108C-6.354,-29.374 -3.273,-24.958 0.077,-22.563C0.697,-22.12 1.561,-20.924 1.382,-20.617C-1.883,-14.999 4.786,-14.948 6.212,-11.996C6.617,-11.157 7.812,-10.505 7.229,-9.48C6.461,-8.128 5.634,-9.262 4.814,-9.703C2.717,-10.832 2.569,-9.308 2.687,-7.92C2.888,-5.531 4.031,-3.793 6.637,-3.54C9.799,-3.231 8.619,-5.691 9.071,-7.253C9.66,-9.291 10.315,-11.367 12.164,-12.799C14.518,-14.624 13.624,-15.592 11.153,-15.503C9.257,-15.434 8.191,-15.892 8.521,-17.908C8.837,-19.833 10.428,-19.526 11.686,-19.298C15.692,-18.575 18.567,-16.478 18.399,-12.065C18.05,-2.861 14.951,1.144 5.57,-0.679C1.778,-1.416 1.065,-0.263 0.071,2.691C-1.294,6.749 -2.557,10.937 -5.503,14.279C-5.913,14.745 -6.466,15.563 -6.311,15.979C-3.744,22.886 -9.568,22.158 -12.882,22.617C-19.426,23.521 -25.719,21.503 -31.928,19.545C-34.017,18.886 -34.441,17.376 -33.784,15.638C-33.117,13.875 -31.821,14.602 -30.483,15.101C-22.703,18.004 -15.589,15.228 -8.531,12.301C-7.437,11.848 -6.73,10.882 -6.276,9.745C-4.33,4.863 -2.355,-0.007 0,-5.853" style="fill:rgb(227,175,104);fill-rule:nonzero;"/>
    </g>
    <g transform="matrix(1,0,0,1,721.148,677.682)">
      <path d="M0,32.226C4.655,30.587 5.658,29.884 7.485,27.294C10.063,23.642 8.792,19.678 4.589,18.088C3.713,17.757 2.88,17.684 2.357,18.398C2.04,18.832 1.904,19.902 2.192,20.202C6.466,24.657 2.817,27.976 0,32.226M12.748,22.772C12.732,28.815 3.371,36.95 -2.435,36.34C-5.217,36.048 -7.98,35.241 -10.653,34.365C-12.827,33.652 -14.76,32.121 -13.756,29.552C-12.893,27.341 -13.277,25.8 -14.642,24.094C-15.406,23.137 -15.622,21.705 -14.498,20.955C-13.002,19.957 -12.576,21.429 -12.091,22.473C-10.418,26.08 -8.449,26.529 -6.04,23.081C-5.685,22.573 -5.104,22.201 -4.579,21.836C-3.441,21.045 -1.077,21.41 -1.293,19.46C-1.483,17.753 -3.538,18.715 -4.665,18.255C-7.321,17.169 -6.793,15.103 -5.538,13.464C1.526,4.241 10.958,-1.187 22.304,-3.339C24.34,-3.726 27.334,-4.724 27.997,-2.234C28.578,-0.053 25.717,0.994 23.708,1.71C20.426,2.881 17.013,3.748 16.426,8.08C16.152,10.1 14.377,9.162 13.184,9.326C11.445,9.565 9.701,10.319 9.254,11.946C8.792,13.628 10.785,13.759 11.89,14.358C12.965,14.94 14.243,15.878 13.492,17.003C12.073,19.128 11.291,21.077 12.748,22.772" style="fill:rgb(227,175,104);fill-rule:nonzero;"/>
    </g>
    <g transform="matrix(1,0,0,1,872.452,723.473)">
      <path d="M0,5.323C1.123,4.506 2.012,3.8 2.959,3.186C3.749,2.675 4.649,2.712 5.112,3.557C5.383,4.052 5.381,4.879 5.167,5.426C2.894,11.261 -3.963,15.217 -10.442,14.498C-11.574,14.372 -13.38,14.456 -13.234,13.099C-12.884,9.834 -14.545,8.339 -17.131,7.117C-18.013,6.701 -18.778,5.439 -17.958,4.622C-16.673,3.342 -15.645,1.526 -12.997,2.459C-9.694,3.621 -6.405,2.749 -3.604,0.62C-1.936,-0.649 0.595,-1.951 -0.539,-4.436C-1.646,-6.864 -4.408,-7.522 -6.955,-7.11C-9.056,-6.769 -11.058,-5.808 -13.095,-5.095C-14.478,-4.612 -16.25,-3.647 -16.835,-5.652C-17.355,-7.438 -15.473,-8.003 -14.053,-8.51C-10.51,-9.774 -6.88,-9.784 -3.218,-9.24C-2.733,-9.167 -2.171,-9.051 -1.817,-8.751C0.516,-6.777 4.403,-9.894 6.205,-6.28C2.393,-5.115 4.318,-0.286 1.233,1.495C0.357,2.001 -1.159,3.008 0,5.323" style="fill:rgb(227,175,104);fill-rule:nonzero;"/>
    </g>
    <g transform="matrix(1,0,0,1,871.099,610.356)">
      <path d="M0,-5.585C-0.525,-3.895 -1.713,-2.966 -3.168,-2.505C-6.306,-1.511 -9.27,0.18 -12.726,-0.023C-14.079,-0.104 -15.264,0.244 -16.455,1.034C-21.178,4.165 -26.071,3.414 -29.362,-1.229C-31.5,-4.246 -34.132,-5.661 -37.731,-5.633C-39.112,-5.623 -41.209,-5.105 -40.939,-7.419C-40.733,-9.192 -38.549,-9.75 -37.353,-9.133C-33.896,-7.352 -29.44,-8.763 -26.422,-4.631C-25.233,-3.004 -20.356,-4.134 -17.169,-3.887C-12.021,-3.488 -7.017,-3.293 -2.707,-7.068C-1.736,-7.919 -0.107,-7.418 0,-5.585" style="fill:rgb(227,175,104);fill-rule:nonzero;"/>
    </g>
    <g transform="matrix(1,0,0,1,855.824,593.425)">
      <path d="M0,9.124C-2.525,5.681 -5.771,11.317 -6.926,8.69C-7.995,6.256 -4.571,3.606 -3.758,0.657C-2.973,-2.193 0.267,-1.595 2.704,-1.513C5.364,-1.423 6.882,0.179 7.632,2.612C8.355,4.961 7.873,7.181 6.756,9.274C6.417,9.91 5.484,10.142 5.055,9.648C3.581,7.955 2.075,7.007 0,9.124" style="fill:rgb(227,175,104);fill-rule:nonzero;"/>
    </g>
    <g transform="matrix(1,0,0,1,869.9,613.31)">
      <path d="M0,13.389C-3.768,14.214 -6.595,12.91 -8.626,9.848C-11.13,6.074 -8.746,2.951 -7.148,-0.254C-6.617,-1.319 -5.689,-1.463 -4.628,-1.281C-2.77,-0.965 -2.813,0.514 -2.956,1.789C-3.32,5.07 -2.738,7.462 0.977,8.558C2.506,9.01 5.615,8.855 4.949,11.869C4.291,14.852 1.605,12.859 0,13.389" style="fill:rgb(227,175,104);fill-rule:nonzero;"/>
    </g>
    <g transform="matrix(1,0,0,1,781.747,671.873)">
      <path d="M0,15.36C0.93,8.862 5.171,3.989 8.494,-1.289C9.59,-3.032 10.785,-6.932 13.024,-5.464C15.383,-3.917 11.969,-1.814 10.955,-0.034C9.152,3.129 7.165,6.185 5.352,9.342C3.592,12.405 3.235,15.583 5.207,18.706C5.84,19.709 6.889,20.793 5.541,21.649C4.527,22.292 3.303,21.48 2.469,20.59C1.095,19.124 -0.283,17.639 0,15.36" style="fill:rgb(227,175,104);fill-rule:nonzero;"/>
    </g>
    <g transform="matrix(1,0,0,1,810.1,566.409)">
      <path d="M0,-12.456C-6.981,-12.792 -9.523,-8.481 -6.413,-2.111C-5.912,-1.084 -5.095,-0.213 -4.442,0.742C-3.716,1.804 -3.415,3.108 -4.573,3.815C-5.649,4.471 -6.145,3.077 -6.843,2.441C-10.519,-0.902 -10.712,-5.414 -10.779,-9.839C-10.825,-12.849 -8.544,-14.539 -6.019,-15.612C-2.926,-16.927 0.192,-15.955 3.217,-15.159C4.001,-14.953 4.22,-13.689 3.747,-12.997C2.652,-11.391 1.021,-12.658 0,-12.456" style="fill:rgb(227,175,104);fill-rule:nonzero;"/>
    </g>
    <g transform="matrix(1,0,0,1,800.8,715.933)">
      <path d="M0,1.144C-0.893,-1.115 -1.564,-2.979 -2.366,-4.785C-2.831,-5.832 -3.821,-6.953 -2.14,-7.607C-0.73,-8.156 0.629,-7.561 0.96,-6.022C1.483,-3.589 1.048,-0.652 5.351,-2.566C6.294,-2.986 6.195,-0.483 5.279,0.431C2.008,3.695 -1.605,6.534 -5.787,8.58C-6.947,9.148 -8.176,9.3 -8.693,7.894C-9.269,6.331 -8.475,5.441 -6.796,5.242C-3.858,4.893 -1.75,3.27 0,1.144" style="fill:rgb(227,175,104);fill-rule:nonzero;"/>
    </g>
    <g transform="matrix(1,0,0,1,839.395,616.062)">
      <path d="M0,10.188C-2.246,10.084 -3.468,8.619 -4.166,6.638C-4.61,5.376 -4.136,4.456 -2.837,3.88C-0.847,2.998 -0.248,3.61 1.223,5.434C3.598,8.377 5.598,4.421 7.593,3.344C8.967,2.603 9.286,0 11.733,0.889C12.705,1.242 12.696,2.117 12.65,2.946C12.512,5.447 10.711,5.991 8.686,6.57C5.693,7.425 3.352,9.915 0,10.188" style="fill:rgb(227,175,104);fill-rule:nonzero;"/>
    </g>
    <g transform="matrix(0.858734,0.512422,0.512422,-0.858734,763.205,674.472)">
      <path d="M1.814,-0.474C0.07,-1.373 -1.043,-0.76 -1.46,0.335C-2.643,3.436 0.404,4.48 1.814,6.268C2.364,6.965 4.343,7.258 4.201,6.436C3.77,3.956 2.586,1.606 1.814,-0.474" style="fill:rgb(227,175,104);fill-rule:nonzero;"/>
    </g>
  </g>
</svg>
